<?xml version="1.0"?>
<svg xmlns="http://www.w3.org/2000/svg" xmlns:xlink="http://www.w3.org/1999/xlink" viewBox="0 0 512 512" width="512" height="512"><linearGradient id="a" gradientUnits="userSpaceOnUse" x1="256.157" x2="256.157" y1="14" y2="506.065"><stop offset="0" stop-color="#00efd1"/><stop offset="1" stop-color="#00acea"/></linearGradient><linearGradient id="b" x1="256" x2="256" xlink:href="#a" y1="14" y2="506.065"/><linearGradient id="c" x1="383.599" x2="383.599" xlink:href="#a" y1="14" y2="506.065"/><linearGradient id="d" x1="128.741" x2="128.741" xlink:href="#a" y1="14" y2="506.065"/><path d="m213.55 266.21a60.385 60.385 0 1 0 42.607-17.595 60.053 60.053 0 0 0 -42.607 17.595zm82.767 42.618a40.006 40.006 0 1 1 -11.737-28.516 40.1 40.1 0 0 1 11.737 28.516z" fill="url(#a)"/><path d="m391.837 350h-16.843a84.625 84.625 0 0 0 -71.825 39.6 78.219 78.219 0 0 0 -38.748-10.6h-16.842a78.119 78.119 0 0 0 -38.747 10.6 84.772 84.772 0 0 0 -71.826-39.6h-16.843a84.116 84.116 0 0 0 -84.163 84.727v33.842c0 5.523 4.054 10.431 9.576 10.431h117.424v18.964a10.024 10.024 0 0 0 9.991 10.036h166.018a10.024 10.024 0 0 0 9.991-10.036v-18.964h117.424c5.522 0 9.576-4.908 9.576-10.431v-33.842a84.116 84.116 0 0 0 -84.163-84.727zm-228.2 109h-107.637v-24.273a64.118 64.118 0 0 1 64.163-64.727h16.843a65.071 65.071 0 0 1 55.655 31.953 92.564 92.564 0 0 0 -29.022 57.047zm165.363 29h-146v-19.339c0-21.684 11.121-43.621 28.527-56.864 10.811-8.214 23.275-12.8 36.052-12.8h16.842c12.805 0 25.321 4.618 36.183 12.882 17.281 13.218 28.4 35.1 28.4 56.739zm127-29h-107.649a92.807 92.807 0 0 0 -29.013-57.058 64.977 64.977 0 0 1 55.656-31.942h16.843a64.118 64.118 0 0 1 64.163 64.727z" fill="url(#b)"/><path d="m383.572 219.272a60.092 60.092 0 1 0 42.587 17.574 60.022 60.022 0 0 0 -42.587-17.574zm28.445 88.657a40.32 40.32 0 1 1 11.769-28.5 39.932 39.932 0 0 1 -11.769 28.5z" fill="url(#c)"/><path d="m128.741 339.646a60.263 60.263 0 1 0 -60.161-60.213 59.819 59.819 0 0 0 60.161 60.213zm-28.465-88.637a40.264 40.264 0 1 1 -11.7 28.424 40.117 40.117 0 0 1 11.7-28.424z" fill="url(#d)"/><path d="m88.414 182h41.586v19.393a10.115 10.115 0 0 0 5.507 8.87 9.783 9.783 0 0 0 10.446-.834l38.979-27.429h93.821c5.522 0 10.247-4.166 10.247-9.688v-29.312h50.282l48.418 49.71a9.957 9.957 0 0 0 7.172 2.985 10.337 10.337 0 0 0 3.825-.758 10.088 10.088 0 0 0 6.3-9.288v-42.649h18.586a10.516 10.516 0 0 0 10.417-10.179v-118.785c0-5.523-4.892-10.036-10.414-10.036h-238.826a9.829 9.829 0 0 0 -9.76 10.036v9.964h-86.586a10.741 10.741 0 0 0 -10.414 10.435v137.877c0 5.522 4.892 9.688 10.414 9.688zm106.586-137.565v-20.435h219v99h-19.13a9.739 9.739 0 0 0 -9.87 9.821v28.2l-34.258-35.081a10.064 10.064 0 0 0 -7.235-2.94h-148.507zm-97-.435h77v88.821a9.953 9.953 0 0 0 9.76 10.179h84.24v19h-87.222a10.553 10.553 0 0 0 -5.86 1.964l-25.918 18.219v-9.871c0-5.523-4.229-10.312-9.752-10.312h-42.248z" fill="url(#b)"/></svg>
