<?xml version="1.0"?>
<svg xmlns="http://www.w3.org/2000/svg" height="512px" viewBox="0 0 512 512" width="512px" class=""><g><g id="flat"><path d="m38 72h436a14 14 0 0 1 14 14v258a0 0 0 0 1 0 0h-464a0 0 0 0 1 0 0v-258a14 14 0 0 1 14-14z" fill="#0296e5" data-original="#0296E5" class="" data-old_color="#0296e5" style="fill:#00A6FF"/><path d="m240 240h32v40h-32z" fill="#fdc9a6" data-original="#FDC9A6"/><path d="m272 240v9.88a23.975 23.975 0 0 1 -32 0v-9.88z" fill="#fdc9a6" data-original="#FDC9A6"/><path d="m24 344h464a0 0 0 0 1 0 0v34a14 14 0 0 1 -14 14h-436a14 14 0 0 1 -14-14v-34a0 0 0 0 1 0 0z" fill="#eaeae8" data-original="#EAEAE8" class=""/><path d="m172 456h168a20 20 0 0 1 20 20v12a0 0 0 0 1 0 0h-208a0 0 0 0 1 0 0v-12a20 20 0 0 1 20-20z" fill="#eaeae8" data-original="#EAEAE8" class=""/><path d="m312 392h-33.366a24 24 0 1 1 -45.268 0h-33.366l-16 64h144z" fill="#cbcbcb" data-original="#CBCBCB"/><path d="m296 112h-80l-8-40h96z" fill="#ea9d2d" data-original="#EA9D2D" class=""/><path d="m344 104h112v128h-112z" fill="#8feaff" data-original="#8FEAFF" class=""/><path d="m400 184a32 32 0 0 1 32 32v16a0 0 0 0 1 0 0h-64a0 0 0 0 1 0 0v-16a32 32 0 0 1 32-32z" fill="#0bafea" data-original="#0BAFEA" class=""/><path d="m419.2 190.39a23.985 23.985 0 0 1 -38.4 0 32.04 32.04 0 0 1 38.4 0z" fill="#0bafea" data-original="#0BAFEA" class=""/><path d="m377.75 192.99a32.029 32.029 0 0 1 44.5 0z" fill="#0bafea" data-original="#0BAFEA" class=""/><path d="m419.2 190.39a23.985 23.985 0 0 1 -38.4 0 32.04 32.04 0 0 1 38.4 0z" fill="#0a9acd" data-original="#0A9ACD" class=""/><path d="m304 240h-96l3.039-40.309a45.31 45.31 0 0 1 44.961-39.691 45.31 45.31 0 0 1 44.961 39.691z" fill="#683b0d" data-original="#683B0D" class="active-path" data-old_color="#683b0d" style="fill:#E9AB6C"/><path d="m272 240v9.88a23.975 23.975 0 0 1 -32 0v-9.88z" fill="#f6bb92" data-original="#F6BB92" class=""/><path d="m272 264 26.274 4.379a26 26 0 0 1 21.726 25.646v49.975h-128v-49.975a26 26 0 0 1 21.726-25.646l26.274-4.379a19.23 19.23 0 0 0 32 0z" fill="#ff6268" data-original="#FF6268" class="" data-old_color="#ff6268" style="fill:#FF304F"/><g fill="#fdc9a6"><path d="m224 344h-32v-48l32 8z" data-original="#FDC9A6"/><path d="m320 344h-32v-40l32-8z" data-original="#FDC9A6"/><path d="m256 248a24 24 0 0 1 -24-24v-16l16-16 32 16v16a24 24 0 0 1 -24 24z" data-original="#FDC9A6"/></g><circle cx="400" cy="168" fill="#0bafea" r="24" data-original="#0BAFEA" class=""/><circle cx="256" cy="56" fill="#fbb540" r="32" data-original="#FBB540" class=""/><circle cx="256" cy="56" fill="#d32b39" r="10" data-original="#D32B39" class="" style="fill:#D32B39"/></g></g> </svg>
